<?xml version="1.0" encoding="UTF-8"?>
<svg id="Ebene_1" xmlns="http://www.w3.org/2000/svg" xmlns:xlink="http://www.w3.org/1999/xlink" version="1.1" viewBox="0 0 69 69">
  <!-- Generator: Adobe Illustrator 30.5.1, SVG Export Plug-In . SVG Version: 2.1.4 Build 3)  -->
  <defs>
    <style>
      .st0 {
        fill: none;
      }

      .st1 {
        mask: url(#mask);
      }

      .st2 {
        fill: #d9d9d9;
      }

      .st3 {
        fill: #fff;
      }
    </style>
    <mask id="mask" x="18.5" y="18.5" width="32" height="32" maskUnits="userSpaceOnUse">
      <g id="mask0_62_587">
        <rect class="st2" x="18.5" y="18.5" width="32" height="32"/>
      </g>
    </mask>
  </defs>
  <circle class="st0" cx="34.5" cy="34.5" r="34.5"/>
  <g class="st1">
    <path class="st3" d="M25.17,43.83h1.87l11.5-11.5-1.87-1.87-11.5,11.5v1.87ZM44.23,30.4l-5.67-5.6,1.87-1.87c.51-.51,1.14-.77,1.88-.77s1.37.26,1.88.77l1.87,1.87c.51.51.78,1.13.8,1.85.02.72-.22,1.34-.73,1.85l-1.9,1.9ZM42.3,32.37l-14.13,14.13h-5.67v-5.67l14.13-14.13,5.67,5.67Z"/>
  </g>
</svg>